<svg width="109" height="40" viewBox="0 0 109 40" fill="none" xmlns="http://www.w3.org/2000/svg">
<path d="M39.6779 5.498C43.0394 1.83267 47.1234 0 51.93 0C56.7366 0 60.8207 1.83267 64.1821 5.498C67.575 9.16333 69.2715 13.8385 69.2715 19.5235C69.2715 25.2085 67.575 29.8837 64.1821 33.549C60.8207 37.2144 56.7366 39.047 51.93 39.047C47.1234 39.047 43.0394 37.2331 39.6779 33.6051C36.3165 29.9398 34.6357 25.2459 34.6357 19.5235C34.6357 13.8011 36.3165 9.12593 39.6779 5.498ZM55.5114 34.8955C56.7052 34.5589 57.522 33.4742 57.9618 31.6416C58.4331 29.7715 58.5901 27.6396 58.4331 25.2459C58.276 22.8522 57.9147 20.3089 57.3492 17.616C56.5638 13.9133 55.4643 10.6968 54.0506 7.96649C52.6683 5.23619 51.1289 3.87104 49.4325 3.87104C49.0869 3.87104 48.7571 3.92714 48.4429 4.03935C47.2177 4.45076 46.4009 5.6289 45.9925 7.57377C45.5841 9.48125 45.4898 11.5944 45.7097 13.9133C45.9297 16.1948 46.3381 18.7194 46.935 21.4871C47.8774 25.7508 49.1026 29.1731 50.6106 31.7538C52.1185 34.3344 53.7521 35.3817 55.5114 34.8955Z" fill="url(#paint0_linear_25_275)"/>
<path d="M58.6059 6.07783C61.9673 2.4125 66.0514 0.579834 70.8579 0.579834C75.6645 0.579834 79.7486 2.4125 83.11 6.07783C86.5029 9.74317 88.1994 14.4183 88.1994 20.1033C88.1994 25.7884 86.5029 30.4635 83.11 34.1289C79.7486 37.7942 75.6645 39.6269 70.8579 39.6269C66.0514 39.6269 61.9673 37.8129 58.6059 34.185C55.2444 30.5196 53.5636 25.8258 53.5636 20.1033C53.5636 14.3809 55.2444 9.70577 58.6059 6.07783ZM74.4393 35.4753C75.6331 35.1387 76.4499 34.0541 76.8897 32.2214C77.361 30.3513 77.5181 28.2194 77.361 25.8258C77.2039 23.4321 76.8426 20.8888 76.2771 18.1959C75.4917 14.4931 74.3922 11.2766 72.9785 8.54632C71.5962 5.81602 70.0568 4.45088 68.3604 4.45088C68.0148 4.45088 67.685 4.50698 67.3708 4.61918C66.1456 5.0306 65.3288 6.20874 64.9204 8.15361C64.512 10.0611 64.4177 12.1743 64.6376 14.4931C64.8576 16.7746 65.266 19.2992 65.8629 22.0669C66.8053 26.3307 68.0305 29.7529 69.5385 32.3336C71.0464 34.9143 72.68 35.9615 74.4393 35.4753Z" fill="url(#paint1_linear_25_275)"/>
<path d="M24.3157 26.0127C24.5356 25.5639 24.8655 25.3395 25.3053 25.3395C25.7137 25.3395 26.0592 25.5265 26.342 25.9005C26.6247 26.2745 26.7033 26.7234 26.5776 27.247C25.8551 30.4261 24.2686 33.0068 21.8181 34.9891C19.3991 36.9339 16.6189 37.9064 13.4773 37.9064C9.73884 37.9064 6.55016 36.5786 3.91124 33.9231C1.30375 31.2676 0 27.8828 0 23.7687C0 19.7667 1.2095 16.4567 3.6285 13.8386C6.07892 11.2205 9.09482 9.81795 12.6762 9.63094C16.7288 9.40654 19.7918 10.0798 21.8653 11.6506C23.9387 13.1841 25.1168 15.0354 25.3995 17.2047C25.588 18.7382 25.3838 20.122 24.7869 21.3563C24.2214 22.5905 23.3889 23.563 22.2894 24.2736C21.2212 24.9468 20.0746 25.4704 18.8494 25.8444C17.6242 26.181 16.3989 26.3494 15.1737 26.3494C13.76 26.3494 12.6605 26.1249 11.8751 25.6761C12.6605 27.1722 13.6344 28.3316 14.7968 29.1545C15.9905 29.9399 17.2315 30.2765 18.5195 30.1643C19.6505 30.0895 20.7343 29.6781 21.771 28.93C22.8077 28.182 23.656 27.2096 24.3157 26.0127ZM13.0532 11.4262C12.0479 11.5384 11.2625 12.4173 10.697 14.063C10.163 15.7087 9.94304 17.3356 10.0373 18.9439C10.1315 20.6269 10.4457 22.2165 10.9798 23.7126C11.4824 23.7874 11.8594 23.8248 12.1107 23.8248C13.3045 23.8248 14.2941 23.245 15.0795 22.0856C15.8649 20.8888 16.2419 19.2431 16.2105 17.1486C16.179 15.6526 15.8649 14.3061 15.268 13.1093C14.7025 11.875 13.9642 11.314 13.0532 11.4262Z" fill="#27272A"/>
<path d="M36.5947 30.1829C36.5947 31.1553 36.7518 32.0156 37.066 32.7636C37.3801 33.5116 37.7257 34.0726 38.1027 34.4467C38.5111 34.7833 38.8567 35.1947 39.1394 35.6809C39.4536 36.1297 39.5949 36.5972 39.5635 37.0835C39.4378 38.5047 36.6733 39.2153 31.2698 39.2153C30.7043 39.2153 30.0603 39.1966 29.3377 39.1592C28.6466 39.1218 27.7827 39.047 26.7459 38.9348C25.7092 38.7852 24.8296 38.5608 24.107 38.2616C23.3845 37.925 22.9918 37.5323 22.9289 37.0835C22.8661 36.5972 22.9761 36.1297 23.2588 35.6809C23.573 35.1947 23.9185 34.7833 24.2955 34.4467C24.7039 34.0726 25.0809 33.5116 25.4265 32.7636C25.7721 32.0156 25.9448 31.174 25.9448 30.239V13.745C25.9448 10.4537 25.4108 8.67712 24.3426 8.41531C23.7772 8.3031 23.3531 8.04129 23.0703 7.62988C22.819 7.18106 22.7876 6.71354 22.9761 6.22733C23.1646 5.74111 23.573 5.3858 24.2013 5.16139C24.5468 5.04919 25.1437 4.82478 25.992 4.48817C26.8402 4.15155 27.4057 3.92714 27.6884 3.81494C27.9711 3.70273 28.4267 3.51573 29.055 3.25392C29.7147 2.95471 30.2331 2.7116 30.6101 2.52459C30.987 2.30019 31.4583 2.03838 32.0238 1.73916C32.5892 1.40255 33.1704 1.02854 33.7673 0.617124C34.3956 0.205708 34.8826 0 35.2282 0C35.4166 0 35.5894 0.0561024 35.7465 0.168307C35.9036 0.243109 36.0293 0.374013 36.1235 0.56102C36.2492 0.748029 36.3434 0.953737 36.4062 1.17814C36.4691 1.36515 36.5162 1.62696 36.5476 1.96357C36.6104 2.30019 36.6419 2.5994 36.6419 2.8612C36.6733 3.12301 36.689 3.45963 36.689 3.87104C36.689 4.28246 36.689 4.63777 36.689 4.93698C36.689 5.19879 36.6733 5.5728 36.6419 6.05902C36.6419 6.50784 36.6419 6.84445 36.6419 7.06886C36.6104 7.96649 36.5947 15.6712 36.5947 30.1829Z" fill="#27272A"/>
<path d="M103.577 20.8514C107.284 22.9833 109.091 25.6388 108.996 28.8179C108.934 31.6978 107.63 33.9606 105.085 35.6062C102.572 37.2145 99.3205 38.0747 95.3307 38.1869C91.8436 38.2991 88.9219 37.7755 86.5657 36.6161C84.2096 35.4192 82.8901 33.9232 82.6074 32.1279C82.3875 30.9685 82.5445 29.9399 83.0786 29.0423C83.6127 28.1073 84.4452 27.5088 85.5762 27.247C87.681 26.7608 89.3146 28.0512 90.477 31.1181C90.8226 32.0157 91.1367 32.745 91.4195 33.3061C91.7022 33.8297 92.1734 34.372 92.8332 34.933C93.5243 35.494 94.3097 35.8306 95.1893 35.9429C96.5088 36.1673 97.5769 36.0177 98.3937 35.494C99.2105 34.933 99.6189 34.2224 99.6189 33.3622C99.6189 32.9881 99.509 32.6328 99.2891 32.2962C99.1006 31.9222 98.865 31.6043 98.5822 31.3425C98.3309 31.0807 97.9696 30.8002 97.4984 30.501C97.0586 30.1643 96.6973 29.9212 96.4145 29.7716C96.1632 29.622 95.8019 29.435 95.3307 29.2106C94.8595 28.9862 94.5924 28.8553 94.5296 28.8179C94.4982 28.7805 93.8542 28.4252 92.5975 27.752C91.3723 27.0413 90.477 26.5364 89.9115 26.2372C89.2832 25.9006 88.6549 25.5079 88.0266 25.0591C87.3983 24.6102 86.6914 24.0118 85.906 23.2638C85.152 22.4784 84.5709 21.5246 84.1625 20.4026C83.7855 19.2431 83.6912 18.0089 83.8797 16.6998C84.2253 14.1566 85.639 12.2678 88.1208 11.0335C90.6027 9.7993 93.65 9.25698 97.2628 9.40658C100.341 9.51879 102.729 10.1546 104.426 11.3141C106.122 12.4361 107.017 13.6703 107.112 15.0168C107.174 15.9518 106.907 16.7373 106.31 17.3731C105.745 18.0089 104.928 18.2707 103.86 18.1585C103.232 18.0837 102.682 17.8593 102.211 17.4853C101.739 17.1113 101.394 16.7747 101.174 16.4754C100.986 16.1388 100.734 15.6152 100.42 14.9046C100.137 14.194 99.9645 13.7825 99.9017 13.6703C99.1477 12.0621 97.9696 11.2767 96.3674 11.3141C95.3935 11.3889 94.7024 11.6507 94.294 12.0995C93.917 12.5483 93.7285 13.0345 93.7285 13.5581C93.7285 14.7176 94.4511 15.69 95.8962 16.4754C95.9904 16.5502 97.0743 17.1674 99.1477 18.3268C101.253 19.4863 102.729 20.3278 103.577 20.8514Z" fill="#27272A"/>
<defs>
<linearGradient id="paint0_linear_25_275" x1="34.6357" y1="20.7305" x2="68.916" y2="20.7305" gradientUnits="userSpaceOnUse">
<stop stop-color="#FF2209"/>
<stop offset="0.168269" stop-color="#FF6100"/>
<stop offset="0.341346" stop-color="#FFE500"/>
<stop offset="0.504808" stop-color="#148B26"/>
<stop offset="0.668269" stop-color="#497BE2"/>
<stop offset="0.826923" stop-color="#6912F5"/>
<stop offset="1" stop-color="#9500FF"/>
</linearGradient>
<linearGradient id="paint1_linear_25_275" x1="53.5636" y1="21.3103" x2="87.8439" y2="21.3103" gradientUnits="userSpaceOnUse">
<stop stop-color="#FF2209"/>
<stop offset="0.168269" stop-color="#FF6100"/>
<stop offset="0.341346" stop-color="#FFE500"/>
<stop offset="0.504808" stop-color="#148B26"/>
<stop offset="0.668269" stop-color="#497BE2"/>
<stop offset="0.826923" stop-color="#6912F5"/>
<stop offset="1" stop-color="#9500FF"/>
</linearGradient>
</defs>
</svg>
